<svg width="76" height="59" viewBox="0 0 76 59" fill="none" xmlns="http://www.w3.org/2000/svg">
<path d="M0.019043 58.2085V41.1801C0.019043 36.3448 0.965065 31.4045 2.85711 26.359C4.74916 21.3136 7.2456 16.5572 10.3465 12.0899C13.4473 7.62253 16.8109 3.891 20.4374 0.895264L35.2584 9.64598C32.3152 14.271 29.8976 19.1062 28.0055 24.1517C26.1661 29.1971 25.2463 34.8207 25.2463 41.0224V58.2085H0.019043ZM39.8308 58.2085V41.1801C39.8308 36.3448 40.7769 31.4045 42.6689 26.359C44.5609 21.3136 47.0574 16.5572 50.1582 12.0899C53.2591 7.62253 56.6227 3.891 60.2492 0.895264L75.0702 9.64598C72.127 14.271 69.7094 19.1062 67.8173 24.1517C65.9778 29.1971 65.0581 34.8207 65.0581 41.0224V58.2085H39.8308Z" fill="#E4E5EB"/>
</svg>
