<svg width="18" height="21" viewBox="0 0 18 21" fill="none" xmlns="http://www.w3.org/2000/svg">
<path d="M17.395 5.41068C17.3711 4.88452 17.3711 4.38228 17.3711 3.88003C17.3711 3.47346 17.0602 3.16255 16.6536 3.16255C13.664 3.16255 11.392 2.30156 9.5026 0.460005C9.21561 0.196926 8.78512 0.196926 8.49812 0.460005C6.60873 2.30156 4.33669 3.16255 1.34715 3.16255C0.940573 3.16255 0.629661 3.47346 0.629661 3.88003C0.629661 4.38228 0.629661 4.88452 0.605745 5.41068C0.510079 10.4331 0.366581 17.321 8.7612 20.2149L9.00036 20.2627L9.23952 20.2149C17.6102 17.321 17.4906 10.457 17.395 5.41068ZM8.42637 12.3703C8.28287 12.4899 8.11546 12.5616 7.92413 12.5616H7.90021C7.70888 12.5616 7.51755 12.466 7.39797 12.3225L5.17376 9.85911L6.24999 8.90246L7.99588 10.8397L11.8703 7.15657L12.8509 8.20888L8.42637 12.3703Z" fill="#4618C9"/>
</svg>
