<svg width="26" height="20" viewBox="0 0 26 20" fill="none" xmlns="http://www.w3.org/2000/svg">
<path d="M25.1848 2.35153C24.2786 2.7384 23.3129 2.99483 22.3062 3.11935C23.3419 2.51754 24.1324 1.57185 24.504 0.431987C23.5384 0.992285 22.4722 1.38805 21.336 1.60891C20.4191 0.658775 19.1123 0.0703125 17.6867 0.0703125C14.9207 0.0703125 12.694 2.25518 12.694 4.93365C12.694 5.31904 12.7275 5.6896 12.8097 6.04238C8.65628 5.84524 4.98107 3.90791 2.51215 0.956711C2.08111 1.68451 1.82828 2.51754 1.82828 3.41432C1.82828 5.09818 2.71929 6.59083 4.04742 7.45499C3.24475 7.44017 2.45732 7.21338 1.79021 6.85615C1.79021 6.87098 1.79021 6.89024 1.79021 6.90951C1.79021 9.27225 3.52195 11.2348 5.79288 11.6869C5.38621 11.7951 4.94299 11.847 4.48302 11.847C4.16317 11.847 3.84028 11.8292 3.53719 11.764C4.1845 13.6894 6.02134 15.105 8.20545 15.1509C6.50568 16.445 4.34747 17.2246 2.01105 17.2246C1.60134 17.2246 1.20839 17.2069 0.81543 17.1579C3.02847 18.5468 5.65123 19.3398 8.4796 19.3398C17.673 19.3398 22.6991 11.9285 22.6991 5.50432C22.6991 5.28939 22.6915 5.08187 22.6809 4.87584C23.6724 4.19103 24.5055 3.33576 25.1848 2.35153Z" fill="#75798F"/>
</svg>
