<svg width="12" height="12" viewBox="0 0 12 12" fill="none" xmlns="http://www.w3.org/2000/svg">
<path d="M2.80433 2.20705L7.58815 0.901269L7.33481 0.389198C7.16906 0.0563509 6.7648 -0.0810999 6.43195 0.0846496L2.14941 2.20705H2.80433Z" fill="#636780"/>
<path d="M9.07308 0.938995C9.0138 0.938995 8.95449 0.947081 8.8952 0.963251L7.77135 1.27049L4.33911 2.20705H8.2349H9.93282L9.7226 1.43624C9.64175 1.13574 9.36954 0.938995 9.07308 0.938995Z" fill="#636780"/>
<path d="M10.6349 2.67868H10.4813H10.2724H10.0636H8.4694H2.61157H1.84346H1.19663H1.0767H0.675126C0.462212 2.67868 0.272207 2.77705 0.148231 2.93202C0.0916339 3.00344 0.0485121 3.08564 0.024256 3.17593C0.0094329 3.23253 0 3.29182 0 3.35246V3.43331V4.20142V10.8597C0 11.2316 0.301853 11.5335 0.673779 11.5335H10.6336C11.0055 11.5335 11.3074 11.2316 11.3074 10.8597V8.97986H7.30915C6.67715 8.97986 6.16373 8.46644 6.16373 7.83443V7.21725V7.00838V6.79951V6.33595C6.16373 6.02601 6.28769 5.74439 6.48849 5.53821C6.66637 5.35493 6.90489 5.23095 7.1717 5.19996C7.21617 5.19458 7.26199 5.19187 7.30781 5.19187H10.7468H10.9556H11.1645H11.3074V3.35246C11.3087 2.98053 11.0069 2.67868 10.6349 2.67868Z" fill="#636780"/>
<path d="M11.7803 5.83603C11.713 5.77404 11.6335 5.72688 11.5445 5.69589C11.4758 5.67299 11.403 5.65952 11.3262 5.65952H11.3087H11.2952H11.0864H10.3331H7.30916C6.93722 5.65952 6.63538 5.96136 6.63538 6.3333V6.66882V6.8777V7.08657V7.83312C6.63538 8.20504 6.93722 8.5069 7.30916 8.5069H11.3087H11.3262C11.403 8.5069 11.4758 8.49342 11.5445 8.47051C11.6335 8.44087 11.713 8.39235 11.7803 8.33037C11.9151 8.20774 12 8.02986 12 7.83313V6.3333C12 6.13654 11.9151 5.95865 11.7803 5.83603Z" fill="#636780"/>
</svg>
