<svg width="58" height="55" viewBox="0 0 58 55" fill="none" xmlns="http://www.w3.org/2000/svg">
<path d="M38.8961 29.5093L36.3549 21.6493L36.3367 21.5952C35.5264 19.2716 33.3473 17.7112 30.9144 17.7112L12.5918 17.7124C10.1588 17.7124 7.97977 19.2728 7.16981 21.5952L4.60469 29.5325C3.69581 29.9166 2.85996 30.4874 2.14391 31.2289C0.761266 32.6587 0 34.5333 0 36.5072V49.4912C0 52.2182 2.21888 54.4375 4.9463 54.4375C7.46427 54.4375 9.54713 52.5459 9.85241 50.1095H33.675C33.9803 52.5459 36.0631 54.4375 38.5811 54.4375C41.1698 54.4375 43.5274 52.3744 43.5274 50.1095V36.3835C43.5274 33.2778 41.6088 30.6134 38.8961 29.5093ZM12.5922 22.6587L30.9144 22.6575C31.2347 22.6575 31.5384 22.8821 31.6598 23.2067L33.5208 28.9641H9.98611L11.8464 23.2067C11.9673 22.8828 12.2711 22.6587 12.5922 22.6587ZM38.5811 42.6901C38.5811 44.0534 37.4717 45.1632 36.108 45.1632H7.41945C6.05574 45.1632 4.9463 44.0534 4.9463 42.6901V36.5072C4.9463 35.0994 6.07892 33.9104 7.41945 33.9104H36.108C37.4717 33.9104 38.5811 35.0198 38.5811 36.3835V42.6901ZM16.1991 37.0018H27.452V41.9481H16.1991V37.0018ZM35.4897 39.475C35.4897 40.8402 34.3826 41.9481 33.0165 41.9481C31.6505 41.9481 30.5434 40.8402 30.5434 39.475C30.5434 38.1089 31.6505 37.0018 33.0165 37.0018C34.3826 37.0018 35.4897 38.1089 35.4897 39.475ZM13.1077 39.475C13.1077 40.8402 12.0006 41.9481 10.6345 41.9481C9.26851 41.9481 8.16139 40.8402 8.16139 39.475C8.16139 38.1089 9.26851 37.0018 10.6345 37.0018C12.0006 37.0018 13.1077 38.1089 13.1077 39.475Z" fill="#090C29"/>
<path d="M57.3036 13.6044C51.1619 18.9048 52.5875 21.6353 54.2452 27.4713C51.2851 21.0089 44.8767 22.2732 41.5542 23.9211C41.3765 24.0278 41.1918 24.1261 41 24.2151C41.1731 24.1168 41.3583 24.0183 41.5542 23.9211C45.9574 21.2766 46.071 13.4172 44.0906 10.694C48.5057 15.1091 53.1017 15.9639 57.3036 13.6044Z" fill="#FF5761"/>
<path d="M39.146 5.99579C36.6214 8.17456 37.2074 9.29693 37.8888 11.6958C36.672 9.03946 34.0378 9.55911 32.6721 10.2365C32.5991 10.2804 32.5232 10.3208 32.4443 10.3574C32.5155 10.3169 32.5916 10.2765 32.6721 10.2365C34.4821 9.14947 34.5288 5.91885 33.7147 4.79951C35.5296 6.61433 37.4187 6.9657 39.146 5.99579Z" fill="#FF5761"/>
<path d="M51.4787 0.84109C49.7255 2.35415 50.1325 3.13358 50.6057 4.7995C49.7607 2.95478 47.9313 3.31566 46.9829 3.78609C46.9322 3.81655 46.8795 3.84459 46.8247 3.87002C46.8741 3.84195 46.927 3.81383 46.9829 3.78609C48.2398 3.03118 48.2723 0.787653 47.7069 0.0103195C48.9673 1.27064 50.2792 1.51465 51.4787 0.84109Z" fill="#FF5761"/>
</svg>
