<svg width="53" height="54" viewBox="0 0 53 54" fill="none" xmlns="http://www.w3.org/2000/svg">
<path d="M32.1558 32.278L30.1616 26.1096L30.1473 26.0671C29.5113 24.2436 27.8012 23.019 25.8918 23.019L11.5124 23.0199C9.60299 23.0199 7.89286 24.2445 7.25721 26.0671L5.24412 32.2962C4.53083 32.5977 3.87486 33.0456 3.3129 33.6276C2.22781 34.7497 1.63037 36.2208 1.63037 37.7699V47.9597C1.63037 50.0999 3.37174 51.8416 5.51221 51.8416C7.4883 51.8416 9.12292 50.3571 9.3625 48.445H28.0584C28.298 50.3571 29.9326 51.8416 31.9087 51.8416C33.9403 51.8416 35.7905 50.2224 35.7905 48.445V37.6729C35.7905 35.2355 34.2848 33.1445 32.1558 32.278ZM11.5127 26.9017L25.8918 26.9008C26.1432 26.9008 26.3816 27.077 26.4768 27.3317L27.9374 31.8501H9.46743L10.9274 27.3317C11.0223 27.0776 11.2607 26.9017 11.5127 26.9017ZM31.9087 42.6222C31.9087 43.6922 31.038 44.5631 29.9678 44.5631H7.45312C6.38289 44.5631 5.51221 43.6922 5.51221 42.6222V37.7699C5.51221 36.6651 6.40109 35.732 7.45312 35.732H29.9678C31.038 35.732 31.9087 36.6026 31.9087 37.6729V42.6222ZM14.3434 38.1581H23.1746V42.0399H14.3434V38.1581ZM29.4825 40.099C29.4825 41.1705 28.6137 42.0399 27.5416 42.0399C26.4696 42.0399 25.6007 41.1705 25.6007 40.099C25.6007 39.027 26.4696 38.1581 27.5416 38.1581C28.6137 38.1581 29.4825 39.027 29.4825 40.099ZM11.9172 40.099C11.9172 41.1705 11.0484 42.0399 9.97632 42.0399C8.90426 42.0399 8.0354 41.1705 8.0354 40.099C8.0354 39.027 8.90426 38.1581 9.97632 38.1581C11.0484 38.1581 11.9172 39.027 11.9172 40.099ZM43.069 29.3269C41.9969 29.3269 41.128 28.4575 41.128 27.386C41.128 26.314 41.9969 25.4451 43.069 25.4451C44.141 25.4451 45.0099 26.314 45.0099 27.386C45.0099 28.4575 44.141 29.3269 43.069 29.3269ZM13.8582 16.6139C14.9302 16.6139 15.7991 17.4828 15.7991 18.5548C15.7991 19.6263 14.9302 20.4958 13.8582 20.4958C12.7861 20.4958 11.9172 19.6263 11.9172 18.5548C11.9172 17.4828 12.7861 16.6139 13.8582 16.6139ZM5.54102 21.6542C5.52191 21.465 5.51221 21.273 5.51221 21.0789V16.6139C5.51221 15.0648 6.10964 13.5937 7.19474 12.4713C7.76276 11.8832 8.42722 11.4317 9.14991 11.1308L11.1424 5.19223C11.7808 3.37505 13.4882 2.155 15.3942 2.155H29.7737C31.6797 2.155 33.3871 3.37505 34.0255 5.19223L34.4695 6.81169H30.339C30.2343 6.58211 30.0105 6.03532 29.7737 6.03532H15.3942C15.1379 6.03532 14.8953 6.21971 14.804 6.48082L14.7983 6.4972L13.4311 10.6941H19.9781C19.6293 11.24 19.3394 11.8317 19.1192 12.4625L19.0971 12.5262L18.4348 14.576H11.335C10.2829 14.576 9.39404 15.5091 9.39404 16.6139V19.4137C7.92622 19.8004 6.59609 20.5798 5.54102 21.6542ZM51.3179 24.9599V35.732C51.3179 37.5094 49.4676 39.1286 47.436 39.1286C45.4599 39.1286 43.8253 37.6441 43.5857 35.732H39.477C39.1853 34.2981 38.576 32.9789 37.7266 31.8501H45.4951C46.5653 31.8501 47.436 30.9791 47.436 29.9092V24.9599C47.436 23.8896 46.5653 23.019 45.4951 23.019H32.9525C31.4313 20.6392 28.7856 19.1371 25.8912 19.1371H43.4235L42.0063 15.0105C41.9181 14.7582 41.6754 14.576 41.4192 14.576H27.0397C26.7847 14.576 26.5433 14.7567 26.4511 15.0163L25.0394 19.2333L20.9358 19.2342L22.7846 13.7411C23.4202 11.9184 25.1303 10.6941 27.0397 10.6941H41.4192C43.3286 10.6941 45.0387 11.9184 45.6743 13.7411L47.6732 19.5611C49.8076 20.4254 51.3179 22.5192 51.3179 24.9599ZM35.2813 29.3269L34.0261 25.4451H38.7019V29.3269H35.2813Z" fill="#090C29"/>
<path d="M43.0689 29.3269C41.9969 29.3269 41.128 28.4574 41.128 27.386C41.128 26.3139 41.9969 25.445 43.0689 25.445C44.141 25.445 45.0098 26.3139 45.0098 27.386C45.0098 28.4574 44.141 29.3269 43.0689 29.3269ZM51.3178 24.9598V35.7319C51.3178 37.5094 49.4676 39.1285 47.436 39.1285C45.4599 39.1285 43.8253 37.644 43.5857 35.7319H39.477C39.1853 34.298 38.576 32.9788 37.7265 31.8501H45.4951C46.5653 31.8501 47.436 30.9791 47.436 29.9091V24.9598C47.436 23.8896 46.5653 23.0189 45.4951 23.0189H32.9525C31.4313 20.6391 28.7856 19.1371 25.8912 19.1371H43.4234L42.0063 15.0105C41.918 14.7582 41.6754 14.5759 41.4191 14.5759H27.0397C26.7846 14.5759 26.5432 14.7566 26.451 15.0162L25.0393 19.2332L20.9358 19.2341L22.7845 13.741C23.4202 11.9184 25.1303 10.6941 27.0397 10.6941H41.4191C43.3285 10.6941 45.0387 11.9184 45.6743 13.741L47.6731 19.561C49.8075 20.4253 51.3178 22.5191 51.3178 24.9598ZM35.2813 29.3269L34.0261 25.445H38.7019V29.3269H35.2813Z" fill="#FF5761"/>
</svg>
