<svg width="48" height="49" viewBox="0 0 48 49" fill="none" xmlns="http://www.w3.org/2000/svg">
<g clip-path="url(#clip0)">
<path d="M15.0959 15.7363L15.0959 15.7363C15.9548 15.0599 16.1605 13.8421 15.571 12.9212C15.571 12.9212 15.571 12.9212 15.571 12.9212L10.9074 5.63432L10.6969 5.76909L10.9074 5.63432C10.6906 5.29553 10.8129 4.98988 10.8811 4.86539L10.8811 4.86533C10.9493 4.74075 11.1408 4.47296 11.5431 4.47296H34.8048C35.2057 4.47296 35.3975 4.73958 35.4658 4.8635C35.534 4.98724 35.6569 5.29176 35.4426 5.63073L35.654 5.76431L35.4426 5.63074L30.8286 12.9314L31.04 13.065L30.8286 12.9314C30.2521 13.8437 30.4509 15.0434 31.291 15.7208L34.0098 17.9133C34.9233 18.6501 36.2611 18.5067 36.9979 17.5931C37.7347 16.6796 37.5912 15.3418 36.6778 14.6051L36.5209 14.7996L36.6778 14.605L35.4331 13.6012L39.0354 7.9013C40.0097 6.35973 40.0682 4.40974 39.1882 2.81251C38.3082 1.21527 36.6285 0.222961 34.8048 0.222961H11.5431C9.71348 0.222961 8.03124 1.22005 7.15282 2.82503L7.15282 2.82504C6.27449 4.43002 6.34149 6.38434 7.32778 7.92538L10.9527 13.5892L5.77015 17.67C3.90481 19.1387 2.37133 21.0436 1.33463 23.1794C0.29783 25.3153 -0.25 27.6985 -0.25 30.0726V37.223C-0.25 43.5643 4.90868 48.723 11.25 48.723H24.0938C25.2674 48.723 26.2188 47.7716 26.2188 46.598C26.2188 45.4243 25.2674 44.473 24.0938 44.473H11.25C7.25257 44.473 4 41.2204 4 37.223V30.0726C4 26.5136 5.60314 23.2109 8.39931 21.0092L8.24466 20.8128L8.39932 21.0092L15.0959 15.7363ZM27.8125 14.0667C27.8125 12.8931 26.8611 11.9417 25.6875 11.9417H20.7188C19.5451 11.9417 18.5938 12.8931 18.5938 14.0667C18.5938 15.2403 19.5451 16.1917 20.7188 16.1917H25.6875C26.8611 16.1917 27.8125 15.2403 27.8125 14.0667Z" fill="#090C29" stroke="#090C29" stroke-width="0.5"/>
<path d="M47.0809 43.1014C46.3926 42.1509 45.0638 41.9384 44.1135 42.6268C42.4304 43.8458 40.1523 44.4639 37.8599 44.4639C35.5676 44.4639 33.2895 43.8458 31.6064 42.6268C30.656 41.9384 29.3272 42.1509 28.6389 43.1015C27.9506 44.0519 28.1631 45.3805 29.1135 46.069L29.1135 46.069C31.4821 47.7845 34.5892 48.723 37.86 48.723C41.1308 48.723 44.2379 47.7845 46.6064 46.069C47.5569 45.3806 47.7693 44.0519 47.0809 43.1014ZM44.1135 35.0331C42.4304 36.2521 40.1523 36.8701 37.8599 36.8701C35.5676 36.8701 33.2895 36.2521 31.6064 35.0331C30.656 34.3447 29.3273 34.5572 28.639 35.5077C27.9505 36.4581 28.1631 37.7868 29.1135 38.4752L29.1135 38.4752C31.4821 40.1907 34.5892 41.1292 37.86 41.1292C41.1308 41.1292 44.2379 40.1907 46.6064 38.4753C47.5569 37.7868 47.7693 36.4582 47.0809 35.5077C46.3926 34.5572 45.0638 34.3447 44.1135 35.0331ZM28.3287 26.8167C28.3287 28.7582 29.4163 30.4681 31.1515 31.6827C32.8862 32.897 35.2819 33.6292 37.9537 33.6292C40.6256 33.6292 43.0213 32.897 44.756 31.6827C46.4912 30.4681 47.5787 28.7582 47.5787 26.8167C47.5787 24.8752 46.4912 23.1654 44.756 21.9507C43.0213 20.7364 40.6256 20.0042 37.9537 20.0042C35.2819 20.0042 32.8862 20.7364 31.1515 21.9507C29.4163 23.1654 28.3287 24.8752 28.3287 26.8167ZM32.5787 26.8167C32.5787 26.3774 32.9608 25.8141 33.7767 25.3041C34.8344 24.6431 36.3563 24.2542 37.9537 24.2542C39.5512 24.2542 41.0731 24.6431 42.1307 25.3041C42.9467 25.8141 43.3287 26.3774 43.3287 26.8167C43.3287 27.256 42.9467 27.8193 42.1307 28.3293C41.0731 28.9904 39.5512 29.3792 37.9537 29.3792C36.3563 29.3792 34.8344 28.9904 33.7767 28.3293C32.9608 27.8193 32.5787 27.256 32.5787 26.8167Z" fill="#FF5761" stroke="#FF5761" stroke-width="0.5"/>
<path d="M10.8464 32.9681L14.2418 33.0251L10.3149 28.7748L13.153 25.9078L17.0094 30.2238L17.0644 26.9559L20.9805 27.0219L20.8446 35.0952C20.8358 35.6144 20.6211 36.1089 20.2478 36.4699C19.8744 36.8308 19.3729 37.0287 18.8537 37.02L10.7804 36.8841L10.8464 32.9681Z" fill="#090C29"/>
</g>
<defs>
<clipPath id="clip0">
<rect y="0.472961" width="48" height="48" fill="white"/>
</clipPath>
</defs>
</svg>
