<svg width="47" height="48" viewBox="0 0 47 48" fill="none" xmlns="http://www.w3.org/2000/svg">
<g clip-path="url(#clip0)">
<path d="M43.0833 43.5563V22.0146C43.0833 21.4953 42.877 20.9971 42.5098 20.6299C42.1425 20.2626 41.6444 20.0563 41.125 20.0563H33.2917C32.7723 20.0563 32.2742 20.2626 31.9069 20.6299C31.5397 20.9971 31.3333 21.4953 31.3333 22.0146V43.5563H29.375V29.848C29.375 29.3286 29.1687 28.8305 28.8014 28.4632C28.4342 28.096 27.9361 27.8896 27.4167 27.8896H19.5833C19.064 27.8896 18.5658 28.096 18.1986 28.4632C17.8313 28.8305 17.625 29.3286 17.625 29.848V43.5563H15.6667V33.7646C15.6667 33.2453 15.4603 32.7471 15.0931 32.3799C14.7258 32.0126 14.2277 31.8063 13.7083 31.8063H5.875C5.35562 31.8063 4.85751 32.0126 4.49025 32.3799C4.12299 32.7471 3.91667 33.2453 3.91667 33.7646V43.5563H0V47.473H47V43.5563H43.0833ZM7.83333 43.5563V35.723H11.75V43.5563H7.83333ZM21.5417 43.5563V31.8063H25.4583V43.5563H21.5417ZM35.25 43.5563V23.973H39.1667V43.5563H35.25Z" fill="#090C29"/>
<path d="M42.3181 7.44546L43.1418 10.7399L46.9415 9.79008L44.9832 1.95674C44.8572 1.45294 44.5363 1.0198 44.091 0.752578C43.6457 0.485359 43.1125 0.405949 42.6087 0.531812L34.7753 2.49015L35.7251 6.2898L38.8959 5.49717C27.7988 21.5396 8.98948 25.9316 0 25.9316V29.8483C4.80697 29.8483 12.8122 28.5827 20.8633 25.0306C29.9172 21.0358 37.1141 15.1314 42.3181 7.44546Z" fill="#FF5761"/>
</g>
<defs>
<clipPath id="clip0">
<rect y="0.472961" width="47" height="47" fill="white"/>
</clipPath>
</defs>
</svg>
