<svg width="43" height="43" viewBox="0 0 43 43" fill="none" xmlns="http://www.w3.org/2000/svg">
<g clip-path="url(#clip0)">
<path d="M32.8977 17.3708C34.7746 15.6713 35.9564 13.2157 35.9564 10.489C35.9563 5.36933 31.7914 1.20447 26.6716 1.20447C21.5519 1.20447 17.3871 5.36934 17.3871 10.489C17.3871 11.0332 17.4346 11.5665 17.525 12.0853C17.1095 12.0282 16.6854 11.9986 16.2545 11.9986C11.1347 11.9986 6.96994 16.1634 6.96994 21.2831C6.96994 24.0096 8.15151 26.4649 10.028 28.1645C4.54225 30.5701 0.699219 36.0525 0.699219 42.4177V42.6677H0.949219H4.15448H4.40448V42.4177C4.40448 35.8837 9.72056 30.5677 16.2544 30.5677C21.3742 30.5677 25.539 26.4029 25.539 21.2832C25.539 20.739 25.4915 20.2056 25.401 19.6868C25.8166 19.744 26.2407 19.7736 26.6716 19.7736C30.5215 19.7736 33.9476 21.6202 36.1141 24.4748L36.297 24.7158L36.4992 24.4907L38.6712 22.0724L38.8149 21.9124L38.6781 21.7464C37.1314 19.8693 35.1535 18.3603 32.8977 17.3708ZM16.2545 26.8624C13.1783 26.8624 10.6752 24.3593 10.6752 21.2831C10.6752 18.2069 13.1783 15.7038 16.2545 15.7038C19.3307 15.7038 21.8338 18.2069 21.8338 21.2831C21.8338 24.3593 19.3307 26.8624 16.2545 26.8624ZM26.6716 16.0682C23.5955 16.0682 21.0924 13.5652 21.0924 10.4889C21.0924 7.41271 23.5955 4.90973 26.6716 4.90973C29.7478 4.90973 32.2509 7.41278 32.2509 10.489C32.2509 13.5653 29.7479 16.0682 26.6716 16.0682Z" fill="#090C29" stroke="#090C29" stroke-width="0.5"/>
<path d="M40.0582 25.0744L28.659 37.7662L22.2261 31.6427L19.9634 34.02L28.8434 42.4728L42.5001 27.2675L40.0582 25.0744Z" fill="#FF5761"/>
</g>
<defs>
<clipPath id="clip0">
<rect x="0.5" y="0.472961" width="42" height="42" fill="white"/>
</clipPath>
</defs>
</svg>
