<svg width="50" height="51" viewBox="0 0 50 51" fill="none" xmlns="http://www.w3.org/2000/svg">
<g clip-path="url(#clip0)">
<path d="M14.7715 4.27138L11.5814 0.472961L0.173706 10.0435L3.36395 13.8419L14.7715 4.27138Z" fill="#FF5761"/>
<path d="M49.8262 10.0559L38.4185 0.485413L35.2284 4.28383L46.6361 13.8543L49.8262 10.0559Z" fill="#FF5761"/>
<path d="M24.9875 5.78574C12.6365 5.78574 2.65637 15.7907 2.65637 28.1293C2.65637 40.468 12.6365 50.473 24.9875 50.473C37.3385 50.473 47.3436 40.468 47.3436 28.1293C47.3436 15.7907 37.3385 5.78574 24.9875 5.78574ZM25 45.5078C15.4047 45.5078 7.62166 37.7248 7.62166 28.1295C7.62166 18.5342 15.4046 10.751 25 10.751C34.5954 10.751 42.3783 18.534 42.3783 28.1293C42.3783 37.7246 34.6077 45.5078 25 45.5078Z" fill="#090C29"/>
<path d="M26.2413 15.7163H22.5173V30.6121L34.2974 37.6999L36.1718 34.6339L26.2413 28.7501V15.7163Z" fill="#FF5761"/>
</g>
<defs>
<clipPath id="clip0">
<rect y="0.472961" width="50" height="50" fill="white"/>
</clipPath>
</defs>
</svg>
