<svg width="276" height="47" viewBox="0 0 276 47" fill="none" xmlns="http://www.w3.org/2000/svg">
<path d="M32.841 14.182H23.2274C23.1592 13.3865 22.9774 12.6649 22.682 12.0172C22.3979 11.3695 22.0001 10.8126 21.4888 10.3467C20.9888 9.86945 20.3808 9.50581 19.6649 9.25581C18.949 8.99445 18.1365 8.86377 17.2274 8.86377C15.6365 8.86377 14.2899 9.25013 13.1876 10.0229C12.0967 10.7956 11.2672 11.9035 10.699 13.3467C10.1422 14.7899 9.86377 16.5229 9.86377 18.5456C9.86377 20.682 10.1479 22.4717 10.716 23.9149C11.2956 25.3467 12.1308 26.4263 13.2217 27.1535C14.3126 27.8695 15.6251 28.2274 17.1592 28.2274C18.0342 28.2274 18.8183 28.1195 19.5115 27.9035C20.2047 27.6763 20.807 27.3524 21.3183 26.932C21.8297 26.5115 22.2445 26.0058 22.5626 25.4149C22.8922 24.8126 23.1138 24.1365 23.2274 23.3865L32.841 23.4547C32.7274 24.932 32.3126 26.4376 31.5967 27.9717C30.8808 29.4945 29.8638 30.9035 28.5456 32.199C27.2388 33.4831 25.6195 34.5172 23.6876 35.3013C21.7558 36.0854 19.5115 36.4774 16.9547 36.4774C13.7501 36.4774 10.8751 35.7899 8.32968 34.4149C5.79559 33.0399 3.78991 31.0172 2.31263 28.3467C0.846724 25.6763 0.11377 22.4092 0.11377 18.5456C0.11377 14.6592 0.86377 11.3865 2.36377 8.72741C3.86377 6.05695 5.8865 4.03991 8.43195 2.67627C10.9774 1.30127 13.8183 0.61377 16.9547 0.61377C19.1592 0.61377 21.1876 0.914906 23.0399 1.51718C24.8922 2.11945 26.5172 3.00013 27.9149 4.15922C29.3126 5.30695 30.4376 6.72172 31.2899 8.40354C32.1422 10.0854 32.6592 12.0115 32.841 14.182Z" fill="#75798F"/>
<path d="M45.1308 36.0001H34.9035L46.4263 1.09104H59.3808L70.9035 36.0001H60.6763L53.0399 10.7047H52.7672L45.1308 36.0001ZM43.2217 22.2274H62.449V29.3183H43.2217V22.2274Z" fill="#75798F"/>
<path d="M74.2658 36.0001V1.09104H89.3339C91.9248 1.09104 94.1919 1.56263 96.1351 2.50582C98.0783 3.449 99.5896 4.80695 100.669 6.57968C101.749 8.35241 102.288 10.4774 102.288 12.9547C102.288 15.4547 101.732 17.5626 100.618 19.2785C99.5158 20.9945 97.9646 22.2899 95.9646 23.1649C93.976 24.0399 91.6521 24.4774 88.993 24.4774H79.993V17.1138H87.0839C88.1976 17.1138 89.1464 16.9774 89.9305 16.7047C90.726 16.4206 91.3339 15.9717 91.7544 15.3581C92.1862 14.7445 92.4021 13.9433 92.4021 12.9547C92.4021 11.9547 92.1862 11.1422 91.7544 10.5172C91.3339 9.88082 90.726 9.41491 89.9305 9.11945C89.1464 8.81263 88.1976 8.65922 87.0839 8.65922H83.743V36.0001H74.2658ZM94.7203 19.9774L103.448 36.0001H93.1521L84.6294 19.9774H94.7203Z" fill="#75798F"/>
<path d="M108.636 36V1.09095H111.824V17.0966H131.631V1.09095H134.818V36H131.631V19.9603H111.824V36H108.636Z" fill="#75798F"/>
<path d="M160.079 25.9944V9.81823H163.114V36H160.079V31.6535H159.841C159.227 32.9944 158.256 34.1137 156.926 35.0114C155.596 35.8978 153.971 36.341 152.051 36.341C150.381 36.341 148.898 35.9773 147.602 35.25C146.307 34.5114 145.29 33.4319 144.551 32.0114C143.812 30.591 143.443 28.8466 143.443 26.7785V9.81823H146.477V26.591C146.477 28.6364 147.079 30.2841 148.284 31.5341C149.489 32.7728 151.034 33.3921 152.92 33.3921C154.102 33.3921 155.239 33.108 156.329 32.5398C157.42 31.9716 158.318 31.1421 159.023 30.0512C159.727 28.9489 160.079 27.5966 160.079 25.9944Z" fill="#75798F"/>
<path d="M174.18 19.6364V36H171.146V9.81823H174.095V13.9262H174.368C174.981 12.5853 175.936 11.5114 177.231 10.7046C178.538 9.88641 180.152 9.47732 182.072 9.47732C183.834 9.47732 185.379 9.84664 186.709 10.5853C188.05 11.3125 189.089 12.3864 189.828 13.8069C190.578 15.2273 190.953 16.9716 190.953 19.0398V36H187.919V19.2273C187.919 17.0796 187.317 15.3807 186.112 14.1307C184.919 12.8807 183.317 12.2557 181.305 12.2557C179.93 12.2557 178.709 12.5512 177.64 13.1421C176.572 13.733 175.726 14.5853 175.101 15.6989C174.487 16.8012 174.18 18.1137 174.18 19.6364Z" fill="#75798F"/>
<path d="M209.256 9.81823V12.4603H196.761V9.81823H209.256ZM200.665 3.5455H203.716V29.1648C203.716 30.2557 203.903 31.1137 204.278 31.7387C204.653 32.3523 205.142 32.7898 205.744 33.0512C206.346 33.3012 206.989 33.4262 207.67 33.4262C208.068 33.4262 208.409 33.4035 208.693 33.358C208.977 33.3012 209.227 33.2444 209.443 33.1875L210.091 35.9319C209.795 36.0455 209.432 36.1478 209 36.2387C208.568 36.341 208.034 36.3921 207.398 36.3921C206.284 36.3921 205.21 36.1478 204.176 35.6591C203.153 35.1705 202.312 34.4432 201.653 33.4773C200.994 32.5114 200.665 31.3125 200.665 29.8807V3.5455Z" fill="#75798F"/>
<path d="M216.18 36V9.81823H219.231V36H216.18ZM217.731 5.31823C217.118 5.31823 216.584 5.108 216.129 4.68755C215.686 4.25573 215.464 3.73868 215.464 3.13641C215.464 2.53414 215.686 2.02277 216.129 1.60232C216.584 1.1705 217.118 0.95459 217.731 0.95459C218.356 0.95459 218.89 1.1705 219.334 1.60232C219.788 2.02277 220.015 2.53414 220.015 3.13641C220.015 3.73868 219.788 4.25573 219.334 4.68755C218.89 5.108 218.356 5.31823 217.731 5.31823Z" fill="#75798F"/>
<path d="M230.29 19.6364V36H227.256V9.81823H230.204V13.9262H230.477C231.091 12.5853 232.045 11.5114 233.341 10.7046C234.648 9.88641 236.261 9.47732 238.182 9.47732C239.943 9.47732 241.488 9.84664 242.818 10.5853C244.159 11.3125 245.199 12.3864 245.937 13.8069C246.687 15.2273 247.062 16.9716 247.062 19.0398V36H244.028V19.2273C244.028 17.0796 243.426 15.3807 242.221 14.1307C241.028 12.8807 239.426 12.2557 237.415 12.2557C236.04 12.2557 234.818 12.5512 233.75 13.1421C232.682 13.733 231.835 14.5853 231.21 15.6989C230.596 16.8012 230.29 18.1137 230.29 19.6364Z" fill="#75798F"/>
<path d="M265.041 46.3637C263.257 46.3637 261.694 46.1307 260.354 45.6648C259.013 45.2103 257.882 44.5853 256.962 43.7898C256.041 42.9944 255.325 42.1023 254.814 41.1137L257.302 39.4773C257.677 40.1364 258.177 40.7841 258.802 41.4205C259.439 42.0569 260.263 42.5853 261.274 43.0057C262.297 43.4262 263.552 43.6364 265.041 43.6364C267.359 43.6364 269.229 43.0569 270.649 41.8978C272.081 40.7387 272.797 38.9375 272.797 36.4944V30.5966H272.524C272.172 31.3921 271.666 32.1875 271.007 32.983C270.348 33.7671 269.484 34.4205 268.416 34.9432C267.359 35.466 266.047 35.7273 264.479 35.7273C262.388 35.7273 260.53 35.2103 258.905 34.1762C257.291 33.1421 256.018 31.6648 255.087 29.7444C254.166 27.8125 253.706 25.5114 253.706 22.841C253.706 20.1932 254.155 17.8637 255.052 15.8523C255.962 13.841 257.229 12.2728 258.854 11.1478C260.479 10.0228 262.371 9.46027 264.53 9.46027C266.132 9.46027 267.462 9.74436 268.518 10.3125C269.575 10.8694 270.422 11.5625 271.058 12.3921C271.706 13.2216 272.212 14.0285 272.575 14.8125H272.882V9.81823H275.848V36.6819C275.848 38.8978 275.376 40.7216 274.433 42.1535C273.49 43.5853 272.206 44.6421 270.581 45.3239C268.956 46.0171 267.109 46.3637 265.041 46.3637ZM264.837 32.9489C266.518 32.9489 267.956 32.5455 269.149 31.7387C270.342 30.9205 271.257 29.75 271.893 28.2273C272.53 26.7046 272.848 24.8921 272.848 22.7898C272.848 20.7444 272.535 18.9319 271.91 17.3523C271.285 15.7614 270.376 14.5114 269.183 13.6023C268.001 12.6819 266.552 12.2216 264.837 12.2216C263.087 12.2216 261.609 12.6932 260.405 13.6364C259.2 14.5796 258.291 15.8523 257.677 17.4546C257.064 19.0455 256.757 20.8239 256.757 22.7898C256.757 24.7898 257.069 26.5569 257.694 28.091C258.319 29.6137 259.234 30.8069 260.439 31.6705C261.643 32.5228 263.109 32.9489 264.837 32.9489Z" fill="#75798F"/>
</svg>
