<svg width="189" height="51" viewBox="0 0 189 51" fill="none" xmlns="http://www.w3.org/2000/svg">
<path d="M23.2273 16.7284H16.8182C16.7727 16.1981 16.6515 15.7171 16.4545 15.2853C16.2652 14.8534 16 14.4822 15.6591 14.1716C15.3258 13.8534 14.9205 13.611 14.4432 13.4443C13.9659 13.2701 13.4242 13.183 12.8182 13.183C11.7576 13.183 10.8598 13.4406 10.125 13.9557C9.39773 14.4709 8.8447 15.2095 8.46591 16.1716C8.0947 17.1337 7.90909 18.289 7.90909 19.6375C7.90909 21.0618 8.09848 22.255 8.47727 23.2171C8.86364 24.1716 9.42045 24.8913 10.1477 25.3762C10.875 25.8534 11.75 26.0921 12.7727 26.0921C13.3561 26.0921 13.8788 26.0201 14.3409 25.8762C14.803 25.7247 15.2045 25.5087 15.5455 25.2284C15.8864 24.9481 16.1629 24.611 16.375 24.2171C16.5947 23.8156 16.7424 23.3648 16.8182 22.8648L23.2273 22.9103C23.1515 23.8951 22.875 24.8989 22.3977 25.9216C21.9205 26.9368 21.2424 27.8762 20.3636 28.7398C19.4924 29.5959 18.4129 30.2853 17.125 30.808C15.8371 31.3307 14.3409 31.5921 12.6364 31.5921C10.5 31.5921 8.58333 31.1337 6.88636 30.2171C5.19697 29.3004 3.85985 27.9519 2.875 26.1716C1.89773 24.3913 1.40909 22.2133 1.40909 19.6375C1.40909 17.0466 1.90909 14.8648 2.90909 13.0921C3.90909 11.3118 5.25758 9.96708 6.95455 9.05799C8.65152 8.14132 10.5455 7.68299 12.6364 7.68299C14.1061 7.68299 15.4583 7.88374 16.6932 8.28526C17.928 8.68677 19.0114 9.27389 19.9432 10.0466C20.875 10.8118 21.625 11.755 22.1932 12.8762C22.7614 13.9974 23.1061 15.2815 23.2273 16.7284ZM31.4205 31.2739H24.6023L32.2841 8.00117H40.9205L48.6023 31.2739H41.7841L36.6932 14.4103H36.5114L31.4205 31.2739ZM30.1477 22.0921H42.9659V26.8193H30.1477V22.0921ZM50.8438 31.2739V8.00117H60.8892C62.6165 8.00117 64.1278 8.31556 65.4233 8.94435C66.7188 9.57314 67.7263 10.4784 68.446 11.6603C69.1657 12.8421 69.5256 14.2587 69.5256 15.9103C69.5256 17.5769 69.1544 18.9822 68.4119 20.1262C67.6771 21.2701 66.643 22.1337 65.3097 22.7171C63.9839 23.3004 62.4347 23.5921 60.6619 23.5921H54.6619V18.683H59.3892C60.1316 18.683 60.7642 18.5921 61.2869 18.4103C61.8172 18.2209 62.2225 17.9216 62.5028 17.5125C62.7907 17.1034 62.9347 16.5693 62.9347 15.9103C62.9347 15.2436 62.7907 14.7019 62.5028 14.2853C62.2225 13.861 61.8172 13.5504 61.2869 13.3534C60.7642 13.1489 60.1316 13.0466 59.3892 13.0466H57.1619V31.2739H50.8438ZM64.4801 20.5921L70.2983 31.2739H63.4347L57.7528 20.5921H64.4801Z" fill="url(#paint0_linear)"/>
<path d="M74.0909 31.2739V8.00117H76.2159V18.6716H89.4205V8.00117H91.5455V31.2739H89.4205V20.5807H76.2159V31.2739H74.0909ZM108.386 24.6034V13.8193H110.409V31.2739H108.386V28.3762H108.227C107.818 29.2701 107.17 30.0163 106.284 30.6148C105.398 31.2057 104.314 31.5012 103.034 31.5012C101.92 31.5012 100.932 31.2587 100.068 30.7739C99.2045 30.2815 98.5265 29.5618 98.0341 28.6148C97.5417 27.6678 97.2955 26.505 97.2955 25.1262V13.8193H99.3182V25.0012C99.3182 26.3648 99.7197 27.4633 100.523 28.2966C101.326 29.1224 102.356 29.5353 103.614 29.5353C104.402 29.5353 105.159 29.3459 105.886 28.9671C106.614 28.5883 107.212 28.0353 107.682 27.308C108.152 26.5731 108.386 25.6716 108.386 24.6034ZM117.787 20.3648V31.2739H115.764V13.8193H117.73V16.558H117.912C118.321 15.664 118.957 14.9481 119.821 14.4103C120.692 13.8648 121.768 13.5921 123.048 13.5921C124.223 13.5921 125.253 13.8383 126.139 14.3307C127.033 14.8156 127.726 15.5315 128.219 16.4784C128.719 17.4254 128.969 18.5883 128.969 19.9671V31.2739H126.946V20.0921C126.946 18.6603 126.545 17.5277 125.741 16.6943C124.946 15.861 123.878 15.4443 122.537 15.4443C121.62 15.4443 120.806 15.6413 120.094 16.0353C119.382 16.4292 118.817 16.9974 118.401 17.7398C117.991 18.4747 117.787 19.3497 117.787 20.3648ZM141.17 13.8193V15.5807H132.841V13.8193H141.17ZM135.443 9.63753H137.477V26.7171C137.477 27.4443 137.602 28.0163 137.852 28.433C138.102 28.8421 138.428 29.1337 138.83 29.308C139.231 29.4747 139.659 29.558 140.114 29.558C140.379 29.558 140.606 29.5428 140.795 29.5125C140.985 29.4747 141.152 29.4368 141.295 29.3989L141.727 31.2284C141.53 31.3042 141.288 31.3724 141 31.433C140.712 31.5012 140.356 31.5353 139.932 31.5353C139.189 31.5353 138.473 31.3724 137.784 31.0466C137.102 30.7209 136.542 30.236 136.102 29.5921C135.663 28.9481 135.443 28.1489 135.443 27.1943V9.63753ZM145.787 31.2739V13.8193H147.821V31.2739H145.787ZM146.821 10.8193C146.412 10.8193 146.056 10.6792 145.753 10.3989C145.457 10.111 145.31 9.76632 145.31 9.3648C145.31 8.96329 145.457 8.62238 145.753 8.34208C146.056 8.0542 146.412 7.91026 146.821 7.91026C147.238 7.91026 147.594 8.0542 147.889 8.34208C148.192 8.62238 148.344 8.96329 148.344 9.3648C148.344 9.76632 148.192 10.111 147.889 10.3989C147.594 10.6792 147.238 10.8193 146.821 10.8193ZM155.193 20.3648V31.2739H153.17V13.8193H155.136V16.558H155.318C155.727 15.664 156.364 14.9481 157.227 14.4103C158.098 13.8648 159.174 13.5921 160.455 13.5921C161.629 13.5921 162.659 13.8383 163.545 14.3307C164.439 14.8156 165.133 15.5315 165.625 16.4784C166.125 17.4254 166.375 18.5883 166.375 19.9671V31.2739H164.352V20.0921C164.352 18.6603 163.951 17.5277 163.148 16.6943C162.352 15.861 161.284 15.4443 159.943 15.4443C159.027 15.4443 158.212 15.6413 157.5 16.0353C156.788 16.4292 156.223 16.9974 155.807 17.7398C155.398 18.4747 155.193 19.3497 155.193 20.3648ZM178.361 38.183C177.171 38.183 176.13 38.0277 175.236 37.7171C174.342 37.414 173.588 36.9974 172.974 36.4671C172.361 35.9368 171.884 35.3421 171.543 34.683L173.202 33.5921C173.452 34.0315 173.785 34.4633 174.202 34.8875C174.626 35.3118 175.175 35.664 175.849 35.9443C176.531 36.2247 177.368 36.3648 178.361 36.3648C179.906 36.3648 181.152 35.9784 182.099 35.2057C183.054 34.433 183.531 33.2322 183.531 31.6034V27.6716H183.349C183.115 28.2019 182.777 28.7322 182.338 29.2625C181.899 29.7853 181.323 30.2209 180.611 30.5693C179.906 30.9178 179.031 31.0921 177.986 31.0921C176.592 31.0921 175.353 30.7474 174.27 30.058C173.194 29.3686 172.346 28.3837 171.724 27.1034C171.111 25.8156 170.804 24.2815 170.804 22.5012C170.804 20.736 171.103 19.183 171.702 17.8421C172.308 16.5012 173.152 15.4557 174.236 14.7057C175.319 13.9557 176.58 13.5807 178.02 13.5807C179.088 13.5807 179.974 13.7701 180.679 14.1489C181.384 14.5201 181.948 14.9822 182.372 15.5353C182.804 16.0883 183.141 16.6262 183.384 17.1489H183.588V13.8193H185.565V31.7284C185.565 33.2057 185.251 34.4216 184.622 35.3762C183.993 36.3307 183.137 37.0353 182.054 37.4898C180.971 37.9519 179.74 38.183 178.361 38.183ZM178.224 29.2398C179.346 29.2398 180.304 28.9709 181.099 28.433C181.895 27.8875 182.505 27.1072 182.929 26.0921C183.353 25.0769 183.565 23.8686 183.565 22.4671C183.565 21.1034 183.357 19.8951 182.94 18.8421C182.524 17.7815 181.918 16.9481 181.122 16.3421C180.334 15.7284 179.368 15.4216 178.224 15.4216C177.058 15.4216 176.073 15.736 175.27 16.3648C174.467 16.9936 173.861 17.8421 173.452 18.9103C173.043 19.9709 172.838 21.1565 172.838 22.4671C172.838 23.8004 173.046 24.9784 173.463 26.0012C173.88 27.0163 174.49 27.8118 175.293 28.3875C176.096 28.9557 177.073 29.2398 178.224 29.2398Z" fill="#090C29"/>
<path d="M9.78129 39.2727V48H8.46879V40.3977H4.36084V48H3.04834V39.2727H9.78129Z" fill="#090C29"/>
<path d="M14.4496 48.1321C13.836 48.1321 13.3005 47.9915 12.8431 47.7102C12.3857 47.429 12.0306 47.0355 11.7777 46.5298C11.5249 46.0242 11.3985 45.4332 11.3985 44.7571C11.3985 44.0781 11.5249 43.4844 11.7777 42.9759C12.0306 42.4673 12.3857 42.0725 12.8431 41.7912C13.3005 41.51 13.836 41.3693 14.4496 41.3693C15.0633 41.3693 15.5988 41.51 16.0562 41.7912C16.5135 42.0725 16.8687 42.4673 17.1215 42.9759C17.3743 43.4844 17.5008 44.0781 17.5008 44.7571C17.5008 45.4332 17.3743 46.0242 17.1215 46.5298C16.8687 47.0355 16.5135 47.429 16.0562 47.7102C15.5988 47.9915 15.0633 48.1321 14.4496 48.1321ZM14.4539 47.0625C14.8516 47.0625 15.1812 46.9574 15.4425 46.7472C15.7039 46.5369 15.8971 46.2571 16.0221 45.9077C16.1499 45.5582 16.2138 45.1733 16.2138 44.7528C16.2138 44.3352 16.1499 43.9517 16.0221 43.6023C15.8971 43.25 15.7039 42.9673 15.4425 42.7543C15.1812 42.5412 14.8516 42.4347 14.4539 42.4347C14.0533 42.4347 13.7209 42.5412 13.4567 42.7543C13.1954 42.9673 13.0008 43.25 12.8729 43.6023C12.7479 43.9517 12.6854 44.3352 12.6854 44.7528C12.6854 45.1733 12.7479 45.5582 12.8729 45.9077C13.0008 46.2571 13.1954 46.5369 13.4567 46.7472C13.7209 46.9574 14.0533 47.0625 14.4539 47.0625Z" fill="#090C29"/>
<path d="M20.1716 46.2145L23.0565 41.4546H24.4287V48H23.1801V43.2358L20.3079 48H18.923V41.4546H20.1716V46.2145Z" fill="#090C29"/>
<path d="M28.8988 48.1321C28.2653 48.1321 27.7199 47.9886 27.2625 47.7017C26.8079 47.4119 26.4585 47.0128 26.2142 46.5043C25.9699 45.9957 25.8477 45.4134 25.8477 44.7571C25.8477 44.0923 25.9727 43.5057 26.2227 42.9972C26.4727 42.4858 26.825 42.0867 27.2795 41.7997C27.7341 41.5128 28.2696 41.3693 28.8861 41.3693C29.3832 41.3693 29.8264 41.4617 30.2156 41.6463C30.6048 41.8281 30.9187 42.0838 31.1574 42.4134C31.3988 42.7429 31.5423 43.1278 31.5878 43.5682H30.3477C30.2795 43.2614 30.1233 42.9972 29.879 42.7756C29.6375 42.554 29.3136 42.4432 28.9074 42.4432C28.5522 42.4432 28.2412 42.5369 27.9741 42.7244C27.7099 42.9091 27.5039 43.1733 27.3562 43.5171C27.2085 43.858 27.1346 44.2614 27.1346 44.7273C27.1346 45.2046 27.2071 45.6165 27.352 45.9631C27.4968 46.3097 27.7014 46.5781 27.9656 46.7685C28.2326 46.9588 28.5466 47.054 28.9074 47.054C29.1488 47.054 29.3676 47.01 29.5636 46.9219C29.7625 46.831 29.9287 46.7017 30.0622 46.5341C30.1986 46.3665 30.2937 46.1648 30.3477 45.929H31.5878C31.5423 46.3523 31.4045 46.7301 31.1744 47.0625C30.9443 47.3949 30.6361 47.6563 30.2497 47.8466C29.8662 48.0369 29.4159 48.1321 28.8988 48.1321Z" fill="#090C29"/>
<path d="M32.9503 48V41.4546H34.2245V44.1989H34.8381L36.9986 41.4546H38.5753L36.0398 44.6378L38.6052 48H37.0242L35.0512 45.3835H34.2245V48H32.9503Z" fill="#090C29"/>
<path d="M44.6755 48.1449C44.2607 48.1449 43.8857 48.0682 43.5505 47.9148C43.2152 47.7585 42.9496 47.5327 42.7536 47.2372C42.5604 46.9418 42.4638 46.5796 42.4638 46.1506C42.4638 45.7813 42.5348 45.4773 42.6769 45.2386C42.8189 45 43.0107 44.8111 43.2522 44.6719C43.4937 44.5327 43.7635 44.4276 44.0618 44.3565C44.3601 44.2855 44.6641 44.2315 44.9738 44.1946C45.3658 44.1492 45.684 44.1122 45.9283 44.0838C46.1726 44.0526 46.3502 44.0028 46.461 43.9347C46.5718 43.8665 46.6272 43.7557 46.6272 43.6023V43.5725C46.6272 43.2003 46.5221 42.9119 46.3118 42.7074C46.1044 42.5028 45.7948 42.4006 45.3829 42.4006C44.9539 42.4006 44.6158 42.4957 44.3687 42.6861C44.1243 42.8736 43.9553 43.0824 43.8616 43.3125L42.6641 43.0398C42.8062 42.6421 43.0135 42.321 43.2863 42.0767C43.5618 41.8296 43.8786 41.6506 44.2366 41.5398C44.5945 41.4261 44.9709 41.3693 45.3658 41.3693C45.6272 41.3693 45.9042 41.4006 46.1968 41.4631C46.4922 41.5227 46.7678 41.6335 47.0235 41.7955C47.282 41.9574 47.4937 42.1889 47.6584 42.4901C47.8232 42.7884 47.9056 43.1761 47.9056 43.6534V48H46.6613V47.1051H46.6101C46.5277 47.2699 46.4042 47.4318 46.2394 47.5909C46.0746 47.75 45.863 47.8821 45.6045 47.9872C45.3459 48.0923 45.0363 48.1449 44.6755 48.1449ZM44.9525 47.1222C45.3047 47.1222 45.6059 47.0526 45.8559 46.9134C46.1087 46.7742 46.3005 46.5923 46.4312 46.3679C46.5647 46.1406 46.6314 45.8977 46.6314 45.6392V44.7955C46.586 44.8409 46.4979 44.8835 46.3672 44.9233C46.2394 44.9602 46.0931 44.9929 45.9283 45.0213C45.7635 45.0469 45.603 45.071 45.4468 45.0938C45.2905 45.1136 45.1598 45.1307 45.0547 45.1449C44.8076 45.1761 44.5817 45.2287 44.3772 45.3026C44.1755 45.3764 44.0135 45.483 43.8914 45.6222C43.7721 45.7585 43.7124 45.9403 43.7124 46.1676C43.7124 46.483 43.8289 46.7216 44.0618 46.8835C44.2948 47.0426 44.5917 47.1222 44.9525 47.1222Z" fill="#090C29"/>
<path d="M49.6027 48V41.4546H52.3172C53.0558 41.4546 53.641 41.6122 54.0728 41.9276C54.5047 42.2401 54.7206 42.6648 54.7206 43.2017C54.7206 43.5852 54.5984 43.8892 54.3541 44.1136C54.1098 44.3381 53.7859 44.4886 53.3825 44.5653C53.6751 44.5994 53.9436 44.6875 54.1879 44.8296C54.4322 44.9688 54.6282 45.1563 54.776 45.3921C54.9265 45.6278 55.0018 45.9091 55.0018 46.2358C55.0018 46.5824 54.9123 46.8892 54.7334 47.1563C54.5544 47.4205 54.2944 47.6278 53.9535 47.7784C53.6155 47.9261 53.2078 48 52.7305 48H49.6027ZM50.8001 46.9347H52.7305C53.0459 46.9347 53.293 46.8594 53.472 46.7088C53.651 46.5582 53.7405 46.3537 53.7405 46.0952C53.7405 45.7912 53.651 45.5526 53.472 45.3793C53.293 45.2031 53.0459 45.1151 52.7305 45.1151H50.8001V46.9347ZM50.8001 44.1818H52.3299C52.5686 44.1818 52.7731 44.1477 52.9436 44.0796C53.1169 44.0114 53.249 43.9148 53.3399 43.7898C53.4336 43.6619 53.4805 43.5114 53.4805 43.3381C53.4805 43.0852 53.3768 42.8878 53.1694 42.7457C52.962 42.6037 52.678 42.5327 52.3172 42.5327H50.8001V44.1818Z" fill="#090C29"/>
<path d="M56.0331 42.554V41.4546H61.5558V42.554H59.4209V48H58.1765V42.554H56.0331Z" fill="#090C29"/>
<path d="M65.3559 48.1321C64.7422 48.1321 64.2067 47.9915 63.7493 47.7102C63.2919 47.429 62.9368 47.0355 62.684 46.5298C62.4312 46.0242 62.3047 45.4332 62.3047 44.7571C62.3047 44.0781 62.4312 43.4844 62.684 42.9759C62.9368 42.4673 63.2919 42.0725 63.7493 41.7912C64.2067 41.51 64.7422 41.3693 65.3559 41.3693C65.9695 41.3693 66.505 41.51 66.9624 41.7912C67.4198 42.0725 67.7749 42.4673 68.0277 42.9759C68.2806 43.4844 68.407 44.0781 68.407 44.7571C68.407 45.4332 68.2806 46.0242 68.0277 46.5298C67.7749 47.0355 67.4198 47.429 66.9624 47.7102C66.505 47.9915 65.9695 48.1321 65.3559 48.1321ZM65.3601 47.0625C65.7579 47.0625 66.0874 46.9574 66.3488 46.7472C66.6101 46.5369 66.8033 46.2571 66.9283 45.9077C67.0562 45.5582 67.1201 45.1733 67.1201 44.7528C67.1201 44.3352 67.0562 43.9517 66.9283 43.6023C66.8033 43.25 66.6101 42.9673 66.3488 42.7543C66.0874 42.5412 65.7579 42.4347 65.3601 42.4347C64.9596 42.4347 64.6272 42.5412 64.363 42.7543C64.1016 42.9673 63.907 43.25 63.7792 43.6023C63.6542 43.9517 63.5917 44.3352 63.5917 44.7528C63.5917 45.1733 63.6542 45.5582 63.7792 45.9077C63.907 46.2571 64.1016 46.5369 64.363 46.7472C64.6272 46.9574 64.9596 47.0625 65.3601 47.0625Z" fill="#090C29"/>
<path d="M72.0792 42.473C71.8576 42.4759 71.6446 42.5284 71.44 42.6307C71.2355 42.733 71.0665 42.8693 70.9329 43.0398C70.8022 43.2102 70.7369 43.4034 70.7369 43.6193H69.5352C69.5352 43.3125 69.6034 43.0227 69.7397 42.75C69.8761 42.4773 70.0622 42.2372 70.298 42.0298C70.5338 41.8225 70.8051 41.6591 71.1119 41.5398C71.4187 41.4205 71.7412 41.3608 72.0792 41.3608C72.6957 41.3608 73.217 41.5114 73.6432 41.8125C74.0721 42.1108 74.3974 42.5085 74.619 43.0057C74.8406 43.5 74.9514 44.0426 74.9514 44.6335V44.8466C74.9514 45.4375 74.8406 45.9815 74.619 46.4787C74.3974 46.9759 74.0721 47.3736 73.6432 47.6719C73.217 47.9702 72.6957 48.1193 72.0792 48.1193C71.5849 48.1193 71.146 48.0142 70.7625 47.804C70.379 47.5938 70.0778 47.3068 69.8591 46.9432C69.6432 46.5767 69.5352 46.1591 69.5352 45.6903H70.7369C70.7369 45.9233 70.798 46.1392 70.9201 46.3381C71.0423 46.5369 71.2042 46.6975 71.4059 46.8196C71.6105 46.9389 71.8349 47 72.0792 47.0028C72.4457 47 72.7483 46.8892 72.9869 46.6705C73.2284 46.4517 73.4074 46.1776 73.5238 45.848C73.6432 45.5156 73.7028 45.1818 73.7028 44.8466V44.6335C73.7028 44.2841 73.6432 43.9446 73.5238 43.6151C73.4074 43.2855 73.2284 43.0142 72.9869 42.8011C72.7483 42.5852 72.4457 42.4759 72.0792 42.473ZM74.1503 44.2202V45.2003H71.4699V44.2202H74.1503Z" fill="#090C29"/>
<path d="M76.3683 48V41.4546H77.6424V44.1989H78.2561L80.4166 41.4546H81.9933L79.4578 44.6378L82.0231 48H80.4422L78.4692 45.3835H77.6424V48H76.3683Z" fill="#090C29"/>
<path d="M85.5004 48.1321C84.8669 48.1321 84.3214 47.9886 83.864 47.7017C83.4095 47.4119 83.0601 47.0128 82.8157 46.5043C82.5714 45.9957 82.4493 45.4134 82.4493 44.7571C82.4493 44.0923 82.5743 43.5057 82.8243 42.9972C83.0743 42.4858 83.4265 42.0867 83.8811 41.7997C84.3356 41.5128 84.8711 41.3693 85.4876 41.3693C85.9848 41.3693 86.428 41.4617 86.8172 41.6463C87.2064 41.8281 87.5203 42.0838 87.7589 42.4134C88.0004 42.7429 88.1439 43.1278 88.1893 43.5682H86.9493C86.8811 43.2614 86.7248 42.9972 86.4805 42.7756C86.239 42.554 85.9152 42.4432 85.5089 42.4432C85.1538 42.4432 84.8427 42.5369 84.5757 42.7244C84.3115 42.9091 84.1055 43.1733 83.9578 43.5171C83.8101 43.858 83.7362 44.2614 83.7362 44.7273C83.7362 45.2046 83.8086 45.6165 83.9535 45.9631C84.0984 46.3097 84.303 46.5781 84.5672 46.7685C84.8342 46.9588 85.1481 47.054 85.5089 47.054C85.7504 47.054 85.9692 47.01 86.1652 46.9219C86.364 46.831 86.5302 46.7017 86.6637 46.5341C86.8001 46.3665 86.8953 46.1648 86.9493 45.929H88.1893C88.1439 46.3523 88.0061 46.7301 87.776 47.0625C87.5459 47.3949 87.2376 47.6563 86.8512 47.8466C86.4677 48.0369 86.0174 48.1321 85.5004 48.1321Z" fill="#090C29"/>
<path d="M89.5519 48V41.4546H94.8914V48H93.6428V42.554H90.7919V48H89.5519Z" fill="#090C29"/>
<path d="M99.4159 48.1321C98.771 48.1321 98.2156 47.9943 97.7497 47.7188C97.2866 47.4403 96.9287 47.0497 96.6758 46.5469C96.4258 46.0412 96.3008 45.4489 96.3008 44.7699C96.3008 44.0994 96.4258 43.5085 96.6758 42.9972C96.9287 42.4858 97.2809 42.0867 97.7326 41.7997C98.1872 41.5128 98.7184 41.3693 99.3264 41.3693C99.6957 41.3693 100.054 41.4304 100.4 41.5526C100.747 41.6747 101.058 41.8665 101.333 42.1278C101.609 42.3892 101.826 42.7287 101.985 43.1463C102.145 43.5611 102.224 44.0653 102.224 44.6591V45.1108H97.021V44.1563H100.976C100.976 43.821 100.907 43.5242 100.771 43.2656C100.635 43.0043 100.443 42.7983 100.196 42.6477C99.9514 42.4972 99.6645 42.4219 99.3349 42.4219C98.977 42.4219 98.6645 42.51 98.3974 42.6861C98.1332 42.8594 97.9287 43.0867 97.7838 43.3679C97.6417 43.6463 97.5707 43.9489 97.5707 44.2756V45.0213C97.5707 45.4588 97.6474 45.831 97.8008 46.1378C97.9571 46.4446 98.1744 46.679 98.4528 46.8409C98.7312 47 99.0565 47.0796 99.4287 47.0796C99.6701 47.0796 99.8903 47.0455 100.089 46.9773C100.288 46.9063 100.46 46.8011 100.605 46.6619C100.75 46.5227 100.86 46.3509 100.937 46.1463L102.143 46.3636C102.047 46.7188 101.873 47.0298 101.623 47.2969C101.376 47.5611 101.065 47.7671 100.69 47.9148C100.318 48.0597 99.8932 48.1321 99.4159 48.1321Z" fill="#090C29"/>
<path d="M103.638 50.4546V41.4546H104.882V42.5156H104.989C105.063 42.3793 105.169 42.2216 105.308 42.0426C105.447 41.8636 105.641 41.7074 105.888 41.5739C106.135 41.4375 106.462 41.3693 106.868 41.3693C107.396 41.3693 107.868 41.5028 108.283 41.7699C108.697 42.0369 109.023 42.4219 109.259 42.9247C109.497 43.4276 109.617 44.0327 109.617 44.7401C109.617 45.4475 109.499 46.054 109.263 46.5597C109.027 47.0625 108.703 47.4503 108.291 47.723C107.879 47.9929 107.409 48.1278 106.881 48.1278C106.483 48.1278 106.158 48.0611 105.905 47.9276C105.655 47.794 105.459 47.6378 105.317 47.4588C105.175 47.2798 105.065 47.1207 104.989 46.9815H104.912V50.4546H103.638ZM104.886 44.7273C104.886 45.1875 104.953 45.5909 105.087 45.9375C105.22 46.2841 105.413 46.5554 105.666 46.7514C105.919 46.9446 106.229 47.0412 106.595 47.0412C106.976 47.0412 107.294 46.9403 107.55 46.7386C107.805 46.5341 107.999 46.2571 108.129 45.9077C108.263 45.5582 108.33 45.1648 108.33 44.7273C108.33 44.2955 108.264 43.9077 108.134 43.5639C108.006 43.2202 107.813 42.9489 107.554 42.75C107.298 42.5511 106.979 42.4517 106.595 42.4517C106.226 42.4517 105.913 42.5469 105.658 42.7372C105.405 42.9276 105.213 43.1932 105.082 43.5341C104.952 43.875 104.886 44.2727 104.886 44.7273Z" fill="#090C29"/>
<path d="M110.256 42.554V41.4546H115.778V42.554H113.644V48H112.399V42.554H110.256Z" fill="#090C29"/>
<path d="M119.579 48.1321C118.965 48.1321 118.429 47.9915 117.972 47.7102C117.515 47.429 117.159 47.0355 116.907 46.5298C116.654 46.0242 116.527 45.4332 116.527 44.7571C116.527 44.0781 116.654 43.4844 116.907 42.9759C117.159 42.4673 117.515 42.0725 117.972 41.7912C118.429 41.51 118.965 41.3693 119.579 41.3693C120.192 41.3693 120.728 41.51 121.185 41.7912C121.642 42.0725 121.998 42.4673 122.25 42.9759C122.503 43.4844 122.63 44.0781 122.63 44.7571C122.63 45.4332 122.503 46.0242 122.25 46.5298C121.998 47.0355 121.642 47.429 121.185 47.7102C120.728 47.9915 120.192 48.1321 119.579 48.1321ZM119.583 47.0625C119.981 47.0625 120.31 46.9574 120.571 46.7472C120.833 46.5369 121.026 46.2571 121.151 45.9077C121.279 45.5582 121.343 45.1733 121.343 44.7528C121.343 44.3352 121.279 43.9517 121.151 43.6023C121.026 43.25 120.833 42.9673 120.571 42.7543C120.31 42.5412 119.981 42.4347 119.583 42.4347C119.182 42.4347 118.85 42.5412 118.586 42.7543C118.324 42.9673 118.13 43.25 118.002 43.6023C117.877 43.9517 117.814 44.3352 117.814 44.7528C117.814 45.1733 117.877 45.5582 118.002 45.9077C118.13 46.2571 118.324 46.5369 118.586 46.7472C118.85 46.9574 119.182 47.0625 119.583 47.0625Z" fill="#090C29"/>
<path d="M124.052 48V41.4546H126.766C127.505 41.4546 128.09 41.6122 128.522 41.9276C128.954 42.2401 129.17 42.6648 129.17 43.2017C129.17 43.5852 129.048 43.8892 128.803 44.1136C128.559 44.3381 128.235 44.4886 127.832 44.5653C128.124 44.5994 128.393 44.6875 128.637 44.8296C128.881 44.9688 129.077 45.1563 129.225 45.3921C129.376 45.6278 129.451 45.9091 129.451 46.2358C129.451 46.5824 129.362 46.8892 129.183 47.1563C129.004 47.4205 128.744 47.6278 128.403 47.7784C128.065 47.9261 127.657 48 127.18 48H124.052ZM125.249 46.9347H127.18C127.495 46.9347 127.742 46.8594 127.921 46.7088C128.1 46.5582 128.19 46.3537 128.19 46.0952C128.19 45.7912 128.1 45.5526 127.921 45.3793C127.742 45.2031 127.495 45.1151 127.18 45.1151H125.249V46.9347ZM125.249 44.1818H126.779C127.018 44.1818 127.222 44.1477 127.393 44.0796C127.566 44.0114 127.698 43.9148 127.789 43.7898C127.883 43.6619 127.93 43.5114 127.93 43.3381C127.93 43.0852 127.826 42.8878 127.619 42.7457C127.411 42.6037 127.127 42.5327 126.766 42.5327H125.249V44.1818Z" fill="#090C29"/>
<defs>
<linearGradient id="paint0_linear" x1="47.8915" y1="0.273896" x2="17.5961" y2="14.714" gradientUnits="userSpaceOnUse">
<stop stop-color="#FF5761"/>
<stop offset="0.369792" stop-color="#D7397B"/>
<stop offset="1" stop-color="#7916C8"/>
</linearGradient>
</defs>
</svg>
