<?xml version="1.0" encoding="utf-8"?><svg xmlns="http://www.w3.org/2000/svg" xmlns:xlink="http://www.w3.org/1999/xlink"><symbol viewBox="0 0 7 9" id="arrow-down" xmlns="http://www.w3.org/2000/svg"><path fill="#ffea3d" d="M3 0h1v6.969H3z"/><path d="M7 5.482L3.5 9 0 5.478h7z" fill-rule="evenodd" fill="#ffea3d"/></symbol><symbol viewBox="0 0 12 13" id="ava" xmlns="http://www.w3.org/2000/svg"><circle cx="6" cy="3" r="3" fill="#afafaf"/><path d="M6 6a6 6 0 016 6c0 1.3-12 1.27-12 0a6 6 0 016-6z" fill-rule="evenodd" fill="#afafaf"/></symbol><symbol viewBox="0 0 1090.09 218.91" id="big-logo" xmlns="http://www.w3.org/2000/svg"><path d="M392.034 44.81V.76h-137.46v44.05H297.3v60.04h52.01V44.81h42.724zm68.914-3.98h9.819q15.387 0 23.617 6.37t8.227 18.31q0 11.94-8.227 18.31t-23.617 6.37h-9.819V40.83zm80.029 63.25a46.124 46.124 0 003.959-4.47q11.008-14.19 11.013-37.02a68.451 68.451 0 00-4.113-23.88 54.954 54.954 0 00-32.773-33.04Q506.587.765 489.873.76h-80.937v103.95c79.025 0 95.338.26 132.041-.63zM689.508.76H575.666v104.02c58.19 0 74.427.17 110.392.46.1 1.88 0-26.99 0-26.99h-58.381V44.81h61.831V.76zm64.349 104.09V78.51s8.49 10.81 20.422 26.01c31.858 0 37.015 1.27 127.391 1.27V.76h-51.751v103.87c-6.969 2.7-8.544 1.42-14.622-.16C808.412 70.23 753.857.76 753.857.76h-52.012v104.09h52.012zM966.55 44.81h11.94a63.859 63.859 0 0123.88 4.25 49.956 49.956 0 0129.19 29.45 61.644 61.644 0 013.98 22.29c0 2.01-2.16 4.94-.23 4.89-28.74 0-42.43-.17-68.76-.17V44.81zm123.15 59.95c.72-2.19.24-1.62.24-3.96a96.874 96.874 0 00-7.69-38.08 101.87 101.87 0 00-21.1-31.84 104.517 104.517 0 00-31.31-21.89A90.747 90.747 0 00991.49.76h-76.96v103.81c63.15 1.13 83.77 1.97 175.17.19z" fill-rule="evenodd" fill="#fff"/><path fill="#fff" d="M0 .91h227v218H0z"/><path d="M120 186c15.635 0 22.978.47 31.269 1.66v-27.11c-9.475 1.19-17.056 1.67-31.269 1.67H50.357V32.36c0-15.94.474-22.84 1.9-32.35H21.93c1.422 8.8 1.895 17.84 1.895 32.58v124.16c0 12.6-.473 21.16-1.895 29.96 8.291-.47 16.109-.71 28.427-.71H120zM170.206.01c1.421 9.04 1.895 15.7 1.895 29.02v127.95c0 12.85-.474 19.98-1.895 29.02h30.322c-1.422-8.33-1.895-16.41-1.895-29.02V29.03c0-12.61.473-20.22 1.895-29.02h-30.319z" fill="#171717" fill-rule="evenodd"/></symbol><symbol viewBox="0 0 15 14" id="comment" xmlns="http://www.w3.org/2000/svg"><path d="M7.5 0C11.64 0 15 2.76 15 6.165a5.481 5.481 0 01-1.44 3.638c-.36.4 1.07 3.853.61 4.171-.57.392-3.05-2.375-3.74-2.133a8.871 8.871 0 01-2.93.489C3.36 12.33 0 9.57 0 6.165S3.36 0 7.5 0z" fill="#484747" fill-rule="evenodd"/></symbol><symbol viewBox="0 0 19 11" id="eye" xmlns="http://www.w3.org/2000/svg"><path d="M0 6c0-2.506 4.635-6 9.5-6C14.62 0 19 3.305 19 5.5S13.85 11 9.5 11 0 8.506 0 6zm9.5-4.5a4.006 4.006 0 11-4.219 4 4.114 4.114 0 014.219-4z" fill="#484747" fill-rule="evenodd"/></symbol><symbol viewBox="0 0 9 18" id="facebook" xmlns="http://www.w3.org/2000/svg"><path d="M.287 9.587H2.24v8.123a.289.289 0 00.287.29h3.311a.289.289 0 00.287-.29V9.625H8.37a.289.289 0 00.285-.257L9 6.377a.292.292 0 00-.071-.226.285.285 0 00-.214-.1H6.126V4.176a.774.774 0 01.9-.851h1.691A.289.289 0 009 3.037V.292a.289.289 0 00-.287-.29H6.276a4.435 4.435 0 00-2.92 1.112 3.113 3.113 0 00-1.018 2.75v2.192H.288a.289.289 0 00-.287.29V9.3a.289.289 0 00.286.287z" fill="#fff" fill-rule="evenodd"/></symbol><symbol viewBox="0 0 9 18" id="facebook-black" xmlns="http://www.w3.org/2000/svg"><path d="M.29 9.587h1.95v8.123a.29.29 0 00.29.29h3.31a.29.29 0 00.29-.29V9.625h2.24a.293.293 0 00.29-.257L9 6.378a.288.288 0 00-.29-.324H6.13V4.179a.772.772 0 01.89-.851h1.69a.29.29 0 00.29-.29V.292a.29.29 0 00-.29-.29H6.28a4.432 4.432 0 00-2.92 1.112 3.12 3.12 0 00-1.02 2.75v2.192H.29a.29.29 0 00-.29.29V9.3a.29.29 0 00.29.287z" fill="#484747" fill-rule="evenodd"/></symbol><symbol viewBox="0 0 16 16" id="instagram" xmlns="http://www.w3.org/2000/svg"><path d="M4 0h8a4 4 0 014 4v8a4 4 0 01-4 4H4a4 4 0 01-4-4V4a4 4 0 014-4zm4 4a4 4 0 11-4 4 4 4 0 014-4zm5-2a1 1 0 11-1 1 1 1 0 011-1z" fill="#fff" fill-rule="evenodd"/></symbol><symbol viewBox="0 0 16 18" id="like" xmlns="http://www.w3.org/2000/svg"><path data-name="Forma 1" d="M15.224 8.793a3.047 3.047 0 00-2.172-.694c-.321 0-.632.022-.926.045a.438.438 0 01-.105-.027.861.861 0 00-.218-.046 1.67 1.67 0 01-.747-.3 10.793 10.793 0 01-1.209-1.375l-.269-.342a7.912 7.912 0 01-1.4-2.254 3.563 3.563 0 01-.2-1.431c0-.1.01-.205.015-.3a3.005 3.005 0 00-.084-1.16A1.227 1.227 0 006.68 0a1.886 1.886 0 00-1.15.413 3.718 3.718 0 00-1.392 2.881 4.824 4.824 0 00.379 1.866 4.43 4.43 0 01.342 1.489c0 .777-.667.993-1.607 1.214l-.284.069c-.108.02-.218.038-.329.057a3.743 3.743 0 00-2.083.81 2.161 2.161 0 00-.529 1.843 1.7 1.7 0 00.669 1.135 2.22 2.22 0 00.974 2.329 1.842 1.842 0 00.2 1.205 2.056 2.056 0 001.017.962A1.749 1.749 0 004.22 17.94a3.829 3.829 0 00.752.067 10.764 10.764 0 001.224-.093l.419-.046c.235-.05.481-.08.729-.113a5.569 5.569 0 001.511-.342 5.945 5.945 0 001.054-.666c.107-.078.213-.155.32-.231a3.784 3.784 0 00.324-.283 1.41 1.41 0 01.573-.4c.168-.034.329-.05.485-.068a4.583 4.583 0 00.507-.072h.082c.174 0 .365.011.564.023.225.013.46.029.692.029a2.123 2.123 0 001.752-.649 5.176 5.176 0 00.784-3.284v-.053c.013-.901.02-2.259-.768-2.966zm-.334 2.775v.239a4.583 4.583 0 01-.5 2.552.952.952 0 01-.868.252h-.045a4.75 4.75 0 00.381-1.542 11.216 11.216 0 00-.031-2.677 3.776 3.776 0 00-.306-1.149 1.7 1.7 0 01.941.356 2.8 2.8 0 01.428 1.969z" fill="#484747" fill-rule="evenodd"/></symbol><symbol id="nav-squared" viewBox="0 0 33 33" xmlns="http://www.w3.org/2000/svg"><defs><style>.jcls-1{fill:#fff}</style></defs><path class="jcls-1" d="M0 0h3.656v3.66H0zm14.656 0h3.688v3.66h-3.688zm14.688 0H33v3.66h-3.656zM0 14.66h3.656v3.68H0zm14.656 0h3.688v3.68h-3.688zm14.688 0H33v3.68h-3.656zM0 29.34h3.656V33H0zm14.656 0h3.688V33h-3.688zm14.688 0H33V33h-3.656z"/></symbol><symbol viewBox="0 0 54.438 67" id="pdf" xmlns="http://www.w3.org/2000/svg"><defs><style>.kcls-1{fill:#282828;fill-rule:evenodd}</style></defs><path id="kForma_1" data-name="Forma 1" class="kcls-1" d="M231.188 1898.72v-54.44a2.088 2.088 0 012.093-2.09h31.407v8.37a4.191 4.191 0 004.187 4.19h8.375v6.28h4.187v-8.37a2.083 2.083 0 00-.607-1.49l-12.562-12.56a2.076 2.076 0 00-1.487-.61h-33.5a6.279 6.279 0 00-6.281 6.28v54.44a6.279 6.279 0 006.281 6.28h14.656v-4.19h-14.656a2.088 2.088 0 01-2.093-2.09z" transform="translate(-227 -1838)"/><path id="kPDF" class="kcls-1" d="M253.916 1879.66v-4.11h-6.368v-1.1a5.462 5.462 0 00-.371-2.19 2.116 2.116 0 00-1.064-1.14 5.676 5.676 0 00-2.207-.32h-1.377a11.388 11.388 0 00-2.192.16 2.673 2.673 0 00-1.206.62 2.839 2.839 0 00-.762 1.36 9.672 9.672 0 00-.264 2.58v4.14h15.811zm-12.862-5.17a1.525 1.525 0 011.055-.25h1.3a2.014 2.014 0 011.157.22.96.96 0 01.278.79q0 .12-.009.3h-4.025a1.624 1.624 0 01.244-1.06zm12.862-5.87v-5.18a11.154 11.154 0 00-.161-2.21 2.891 2.891 0 00-.567-1.23 2.132 2.132 0 00-1.123-.7 13.086 13.086 0 00-2.847-.2h-5.537a21.035 21.035 0 00-3.012.14 2.871 2.871 0 00-1.392.68 3.076 3.076 0 00-.9 1.6 19.017 19.017 0 00-.274 4.02v3.08h15.811zm-12.964-5.03a.64.64 0 01.444-.31 7.708 7.708 0 011.377-.07h6.143a5.1 5.1 0 011.938.21 1.2 1.2 0 01.357 1.09h-10.4a2.033 2.033 0 01.141-.92zm12.964-7.02v-4.11h-6.641v-2.54h-3.008v2.54h-3v-2.86h-3.164v6.97h15.811z" transform="translate(-227 -1838)"/></symbol><symbol viewBox="0 0 17 16" id="question" xmlns="http://www.w3.org/2000/svg"><path data-name="Forma 1" d="M14.02 0H2.98A2.958 2.958 0 000 2.924V9.6a2.958 2.958 0 002.98 2.924h7.03l3.37 3.3a.582.582 0 00.42.171.627.627 0 00.23-.045.589.589 0 00.37-.54V12.5A2.95 2.95 0 0017 9.6V2.921A2.958 2.958 0 0014.02 0zm1.79 9.6a1.772 1.772 0 01-1.79 1.754h-.22a.594.594 0 00-.6.585V14l-2.52-2.474a.591.591 0 00-.42-.172H2.98A1.772 1.772 0 011.19 9.6V2.921a1.772 1.772 0 011.79-1.754h11.04a1.772 1.772 0 011.79 1.754V9.6zm-2.92-5.462H4.11a.585.585 0 100 1.169h8.78a.585.585 0 100-1.166zm0 3.274H4.11a.585.585 0 100 1.17h8.78a.585.585 0 100-1.167z" fill="#fff" fill-rule="evenodd"/></symbol><symbol viewBox="0 0 15 9" id="response-arrow" xmlns="http://www.w3.org/2000/svg"><defs><style>.mcls-1{fill:#484747;fill-rule:evenodd}</style></defs><path id="mForma_1" data-name="Forma 1" class="mcls-1" d="M703.71 4108.12h-9.564a.533.533 0 100 1.06h9.564a2.973 2.973 0 013.109 2.8c0 1.54-1.373 2.35-1.527 2.19l.9.83a3.371 3.371 0 001.806-3.02 4.1 4.1 0 00-4.288-3.86z" transform="translate(-693 -4106)"/><path class="mcls-1" d="M3.044 5.06L0 2.53 3.048 0v5.06z"/></symbol><symbol viewBox="0 0 14 14" id="skype" xmlns="http://www.w3.org/2000/svg"><path data-name="Forma 1" d="M13.272 8.37A6.8 6.8 0 0013.418 7a6.491 6.491 0 00-1.874-4.54 6.372 6.372 0 00-2.051-1.37A6.262 6.262 0 007 .58a6.536 6.536 0 00-1.367.15 3.495 3.495 0 00-4.9 4.9A6.8 6.8 0 00.587 7a6.491 6.491 0 001.874 4.54 6.372 6.372 0 002.051 1.37 6.262 6.262 0 002.493.51 6.538 6.538 0 001.368-.15 3.494 3.494 0 004.899-4.9zm-2.881 1.35a2.29 2.29 0 01-.807.85 3.866 3.866 0 01-1.116.49 4.875 4.875 0 01-1.276.17 5.512 5.512 0 01-2.653-.6A1.7 1.7 0 013.427 9.2a1.038 1.038 0 01.232-.69.859.859 0 01.688-.27.879.879 0 01.493.15 1.858 1.858 0 01.419.35c.128.13.266.27.415.41a2.1 2.1 0 00.592.35 2.2 2.2 0 00.834.14 1.72 1.72 0 00.958-.23.677.677 0 00.364-.59.593.593 0 00-.291-.54 3.988 3.988 0 00-1.021-.33l-1.331-.33a4.637 4.637 0 01-.939-.3 3.078 3.078 0 01-.73-.44 1.7 1.7 0 01-.51-.69 2.491 2.491 0 01-.173-.97 2.238 2.238 0 01.305-1.17 2.171 2.171 0 01.811-.79 4.117 4.117 0 011.09-.43 5.322 5.322 0 011.2-.14 6.386 6.386 0 011.659.21 3.525 3.525 0 011.3.61 1.167 1.167 0 01.51.91 1.014 1.014 0 01-.26.7.857.857 0 01-.688.29.825.825 0 01-.437-.11 1.726 1.726 0 01-.365-.26c-.11-.1-.225-.2-.347-.31a1.546 1.546 0 00-.492-.25 1.939 1.939 0 00-.7-.11c-.875 0-1.312.23-1.312.7a.531.531 0 00.068.27.764.764 0 00.15.19.913.913 0 00.274.15 2.294 2.294 0 00.319.1c.085.02.219.06.4.1l.948.22a6.36 6.36 0 01.8.21 4.258 4.258 0 01.752.31 2.823 2.823 0 01.665.44 2.11 2.11 0 01.442.63 1.917 1.917 0 01.178.83 2.366 2.366 0 01-.306 1.2z" fill="#fff" fill-rule="evenodd"/></symbol><symbol viewBox="0 0 15.031 13.06" id="telegram" xmlns="http://www.w3.org/2000/svg"><path d="M.272 6.24l3.462 1.29 1.34 4.3a.41.41 0 00.647.19l1.93-1.57a.588.588 0 01.7-.02l3.48 2.52a.4.4 0 00.64-.24L15.02.48a.4.4 0 00-.546-.46L.266 5.48a.406.406 0 00.006.76zm4.586.6l6.766-4.15a.119.119 0 01.142.19L6.182 8.05a1.161 1.161 0 00-.359.69l-.19 1.41a.175.175 0 01-.341.02L4.56 7.61a.688.688 0 01.298-.77z" fill="#fff" fill-rule="evenodd"/></symbol><symbol viewBox="0 0 14 16" id="viber" xmlns="http://www.w3.org/2000/svg"><path d="M5.107 0h2.776a7.226 7.226 0 011.976.15 5.61 5.61 0 013.169 2.25 6.475 6.475 0 01.784 1.74c.089.28.093.59.16.9 0 .24.01.49.015.73v1.46a8.324 8.324 0 01-.087 1.84 5.569 5.569 0 01-4.113 4.4 6.613 6.613 0 01-1.715.13H5.819c-.6.62-1.191 1.23-1.787 1.85a1.338 1.338 0 01-.7.55.334.334 0 01-.16-.13 2.18 2.18 0 01-.043-.75v-2.06a5.6 5.6 0 01-2.921-3.6 8.609 8.609 0 01-.175-2.35v-1.4a3.941 3.941 0 01.03-.81c.061-.27.078-.56.159-.82a6.731 6.731 0 01.8-1.73 5.689 5.689 0 012.6-2.03 5.794 5.794 0 01.959-.26A2.744 2.744 0 005.107 0zm-1.1 2.89a2.425 2.425 0 01.494.09c.329.09.671.11.974.2a.788.788 0 01.1.15l.059.37c.093.36.138.77.232 1.13a1.237 1.237 0 01.044.61c-.189.2-.378.39-.567.59a.481.481 0 00-.2.25 1.794 1.794 0 01.16.33c.091.18.2.37.305.54A4.538 4.538 0 007.12 8.58a2.546 2.546 0 00.567.3l.581-.6a.689.689 0 01.276-.24 1.532 1.532 0 01.567.1c.49.14 1.012.19 1.482.32a2.652 2.652 0 01.2.79c.051.2.084.45.13.65a1.359 1.359 0 01-.319.84 1.652 1.652 0 01-.843.64 3.538 3.538 0 01-2.02-.15 6.756 6.756 0 01-3.924-2.76 8.666 8.666 0 01-.61-1.21c-.08-.19-.112-.38-.189-.57a3.958 3.958 0 01-.16-2.96 2 2 0 01.726-.69A2.143 2.143 0 004 2.89zm3.241-.49a3.694 3.694 0 013.865 4.23.622.622 0 01-.2.54c-.161.13-.3-.08-.364-.15a5.067 5.067 0 00.073-1.23 5.244 5.244 0 00-.145-.69 3.262 3.262 0 00-1.8-1.95 4.592 4.592 0 00-.887-.21 2.867 2.867 0 01-.6-.02.262.262 0 010-.49c.01-.01.041-.02.054-.03zm.072 1.06a2.685 2.685 0 012.776 3.03.575.575 0 01-.16.17.242.242 0 01-.189-.02c-.273-.08-.1-.49-.16-.78a2.937 2.937 0 00-.319-.9 2.19 2.19 0 00-1.337-.93c-.25-.06-.6 0-.814-.06a.336.336 0 01-.073-.37c.039-.04.078-.07.116-.11a.8.8 0 00.156-.03zm.16 1.07a1.491 1.491 0 011.439.9 1.308 1.308 0 01.131.85.38.38 0 01-.277.12.4.4 0 01-.2-.18c0-.09-.01-.18-.014-.27a1.242 1.242 0 00-.117-.34 1.175 1.175 0 00-.7-.53c-.11-.03-.255-.02-.349-.04a.908.908 0 00-.116-.15.364.364 0 01.145-.35.09.09 0 00.054-.01z" fill="#fff" fill-rule="evenodd"/></symbol><symbol viewBox="0 0 18 10" id="vk" xmlns="http://www.w3.org/2000/svg"><path d="M15.492 6.359A24.014 24.014 0 0117.255 8.1a5.045 5.045 0 01.632.893.637.637 0 01-.4 1h-2.622a2.044 2.044 0 01-1.67-.666c-.363-.364-.7-.75-1.048-1.125a2.448 2.448 0 00-.472-.412.553.553 0 00-.875.21 2.668 2.668 0 00-.276 1.2.69.69 0 01-.835.794 6.809 6.809 0 01-3.752-.792 8.235 8.235 0 01-2.525-2.321A31.079 31.079 0 01.089 1.066C-.121.608.033.366.548.353q1.283-.024 2.567 0a.753.753 0 01.712.523 15.529 15.529 0 001.74 3.166 2.728 2.728 0 00.657.709.4.4 0 00.679-.2 2.154 2.154 0 00.151-.664 9.71 9.71 0 00-.042-2.327.977.977 0 00-.841-.887C5.92.626 5.958.535 6.079.394a.949.949 0 01.8-.393h2.964a.7.7 0 01.634.757V3.99a.938.938 0 00.418.826.587.587 0 00.592-.285 10.006 10.006 0 001.668-2.517c.2-.4.373-.812.541-1.224a.636.636 0 01.67-.451h2.852a1.62 1.62 0 01.252.015.487.487 0 01.464.745 6.953 6.953 0 01-1.134 1.93c-.476.646-.984 1.27-1.456 1.921a.867.867 0 00.139 1.408z" fill="#fff" fill-rule="evenodd"/></symbol><symbol viewBox="0 0 18 10" id="vk-black" xmlns="http://www.w3.org/2000/svg"><path d="M15.49 6.359A22.424 22.424 0 0117.25 8.1a4.857 4.857 0 01.64.893.639.639 0 01-.4 1h-2.62a2.035 2.035 0 01-1.67-.666c-.37-.364-.7-.75-1.05-1.125a3.071 3.071 0 00-.47-.412.559.559 0 00-.88.208 2.633 2.633 0 00-.27 1.2.694.694 0 01-.84.793 6.813 6.813 0 01-3.75-.792 8.309 8.309 0 01-2.53-2.321A31.177 31.177 0 01.09 1.063C-.12.605.03.363.55.35c.86-.016 1.71-.015 2.57 0a.756.756 0 01.71.524A15.417 15.417 0 005.57 4.04a2.665 2.665 0 00.66.709.4.4 0 00.68-.2 2.165 2.165 0 00.15-.664 10.065 10.065 0 00-.05-2.327.975.975 0 00-.84-.887C5.92.624 5.96.533 6.08.392a.947.947 0 01.8-.393h2.97a.689.689 0 01.63.757l.01 3.232a.936.936 0 00.41.826.6.6 0 00.6-.285 10.173 10.173 0 001.66-2.517c.2-.4.38-.812.54-1.224a.64.64 0 01.67-.451h2.86a1.613 1.613 0 01.25.014.485.485 0 01.46.745 6.968 6.968 0 01-1.13 1.93c-.48.647-.99 1.271-1.46 1.921a.868.868 0 00.14 1.408z" fill="#484747" fill-rule="evenodd"/></symbol><symbol viewBox="0 0 14 14" id="whatsapp" xmlns="http://www.w3.org/2000/svg"><path data-name="Forma 1" d="M7 0a7.007 7.007 0 00-7 7 6.931 6.931 0 001.333 4.1L.46 13.7l2.691-.86A6.888 6.888 0 007 14 7 7 0 007 0zm4.073 9.88a1.954 1.954 0 01-1.374.99c-.366.08-.843.14-2.452-.52a8.879 8.879 0 01-3.485-3.08 4.027 4.027 0 01-.831-2.11 2.24 2.24 0 01.716-1.71 1.028 1.028 0 01.716-.25c.086 0 .164.01.234.01a.407.407 0 01.444.35c.169.4.581 1.41.63 1.51a.416.416 0 01.029.38 1.209 1.209 0 01-.226.32c-.1.12-.2.21-.305.34a.323.323 0 00-.082.43 6.038 6.038 0 001.136 1.41 5.257 5.257 0 001.641 1.02.446.446 0 00.494-.08 8.3 8.3 0 00.547-.73.4.4 0 01.5-.15c.189.07 1.189.56 1.395.66a1.2 1.2 0 01.391.24 1.735 1.735 0 01-.116.97z" fill="#fff" fill-rule="evenodd"/></symbol><symbol id="white-logo" viewBox="0 0 1089.94 218.156" xmlns="http://www.w3.org/2000/svg"><defs><style>.tcls-1{fill:#fff;fill-rule:evenodd}</style></defs><path id="ttrend" class="tcls-1" d="M521.034 687.9v-44.051h-137.46V687.9H426.3v156.035h52.01V687.9h42.724zm68.914-3.98h9.819q15.387 0 23.617 6.368t8.227 18.311q0 11.941-8.227 18.31t-23.617 6.369h-9.819V683.92zm51.481 78.017q21.5-5.037 32.507-19.239t11.013-37.018a68.46 68.46 0 00-4.113-23.883 54.964 54.964 0 00-32.773-33.038q-12.476-4.908-29.19-4.91h-80.937v200.086h52.012v-76.956l49.624 76.956h64.749zm177.079-118.088H704.666v200.086h113.842v-44.051h-61.831v-34.5h58.381v-44.048h-58.381V687.9h61.831v-44.051zm64.349 200.086V721.6l96.062 122.334h51.751V643.849h-51.751v122.334l-96.062-122.334h-52.012v200.086h52.012zM1095.55 687.9h11.94a63.9 63.9 0 0123.88 4.246 49.989 49.989 0 0129.19 29.455 61.645 61.645 0 013.98 22.291 63.03 63.03 0 01-3.85 22.424 49.937 49.937 0 01-11.14 17.646 51.606 51.606 0 01-17.91 11.677 64.618 64.618 0 01-24.15 4.245h-11.94V687.9zm-52.02 156.035h76.96a91.372 91.372 0 0038.61-8.226 103.222 103.222 0 0031.31-22.026 101.1 101.1 0 0020.97-31.976 98.241 98.241 0 00-.13-75.895 101.876 101.876 0 00-21.1-31.844 104.631 104.631 0 00-31.31-21.892 90.866 90.866 0 00-38.35-8.227h-76.96v200.086z" transform="translate(-129 -643.844)"/><path id="tli" class="tcls-1" d="M129 644h227v218H129V644zm120 186.089c15.635 0 22.978.476 31.269 1.665v-27.113c-9.475 1.189-17.056 1.664-31.269 1.664h-69.643v-129.86c0-15.935.222-22.931 1.643-32.445h-30c1.421 8.8 1.825 17.937 1.825 32.683v124.152c0 12.606-.473 21.168-1.895 29.968 8.291-.476 16.109-.714 28.427-.714H249zM299 644a163.033 163.033 0 012.1 29.116v127.957c0 12.843-.474 19.978-1.895 29.016h30.322c-1.422-8.324-1.895-16.411-1.895-29.016V673.116c0-12.606.119-19.8 1.364-29.116H299z" transform="translate(-129 -643.844)"/></symbol><symbol id="zoom-in" viewBox="0 0 29.219 28.72" xmlns="http://www.w3.org/2000/svg"><defs><style>.ucls-3{fill:#ffea3d}</style></defs><circle cx="13.5" cy="13.5" r="12" fill="none" stroke="#282828" stroke-width="3"/><path id="uRounded_Rectangle_1" data-name="Rounded Rectangle 1" d="M736.879 5251.26l6.364 6.36a1.5 1.5 0 11-2.122 2.12l-6.364-6.36a1.5 1.5 0 112.122-2.12z" transform="translate(-714.5 -5231.5)" fill="#282828" fill-rule="evenodd"/><path class="ucls-3" d="M12.5 9.5h2v8h-2z"/><path class="ucls-3" d="M9.5 12.5h8v2h-8z"/></symbol></svg>